<svg width="142" height="48" viewBox="0 0 142 48" fill="none" xmlns="http://www.w3.org/2000/svg">
<g filter="url(#filter0_d_16_46)">
<path d="M13.6895 0.703125C13.5072 1.11979 13.3444 1.48438 13.2012 1.79688C13.0579 2.10938 12.9342 2.3763 12.8301 2.59766C12.7129 2.84505 12.6152 3.06641 12.5371 3.26172C12.472 3.40495 12.3874 3.60026 12.2832 3.84766C12.179 4.06901 12.0488 4.36198 11.8926 4.72656C11.7493 5.07812 11.5605 5.53385 11.3262 6.09375C11.209 5.61198 11.0658 5.1888 10.8965 4.82422C10.7272 4.45964 10.5449 4.14062 10.3496 3.86719C10.1543 3.59375 9.94596 3.3724 9.72461 3.20312C9.51628 3.02083 9.30794 2.87109 9.09961 2.75391C8.61784 2.49349 8.11003 2.35026 7.57617 2.32422C6.87305 2.36328 6.31966 2.48047 5.91602 2.67578C5.52539 2.85807 5.23893 3.07292 5.05664 3.32031C4.87435 3.55469 4.77669 3.80208 4.76367 4.0625C4.75065 4.3099 4.7832 4.51823 4.86133 4.6875C4.92643 4.84375 5.1543 5.02604 5.54492 5.23438C5.94857 5.44271 6.43034 5.68359 6.99023 5.95703C7.56315 6.21745 8.17513 6.51693 8.82617 6.85547C9.47721 7.18099 10.0762 7.54557 10.623 7.94922C11.1829 8.33984 11.6517 8.76953 12.0293 9.23828C12.4199 9.69401 12.6348 10.1823 12.6738 10.7031C12.7129 11.3672 12.7064 11.9661 12.6543 12.5C12.6022 13.0339 12.4199 13.4896 12.1074 13.8672C11.7949 14.2448 11.3066 14.5443 10.6426 14.7656C9.99154 14.987 9.08659 15.1237 7.92773 15.1758C6.72982 15.2279 5.74674 15.1628 4.97852 14.9805C4.21029 14.7982 3.58529 14.5508 3.10352 14.2383C2.63477 13.9258 2.2832 13.5807 2.04883 13.2031C1.82747 12.8255 1.66471 12.4674 1.56055 12.1289C1.45638 11.7773 1.38477 11.4779 1.3457 11.2305C1.30664 10.9701 1.24154 10.8138 1.15039 10.7617C1.04622 10.6966 0.942057 10.638 0.837891 10.5859C0.746745 10.5339 0.649089 10.4883 0.544922 10.4492C0.440755 10.3971 0.336589 10.3516 0.232422 10.3125L5.91602 9.39453C5.59049 9.65495 5.33659 9.89583 5.1543 10.1172C4.98503 10.3385 4.85482 10.5339 4.76367 10.7031C4.65951 10.8984 4.58789 11.0807 4.54883 11.25C4.52279 11.4323 4.58138 11.6602 4.72461 11.9336C4.86784 12.207 5.06315 12.474 5.31055 12.7344C5.57096 12.9818 5.87044 13.1901 6.20898 13.3594C6.54753 13.5286 6.89909 13.6003 7.26367 13.5742C7.7194 13.5352 8.09049 13.4245 8.37695 13.2422C8.66341 13.0469 8.87826 12.806 9.02148 12.5195C9.17773 12.2331 9.26888 11.9206 9.29492 11.582C9.32096 11.2435 9.28841 10.9115 9.19727 10.5859C9.11914 10.2474 8.98893 9.9349 8.80664 9.64844C8.62435 9.34896 8.40951 9.10156 8.16211 8.90625C7.94076 8.75 7.5957 8.60026 7.12695 8.45703C6.67122 8.3138 6.1569 8.15755 5.58398 7.98828C5.02409 7.81901 4.44466 7.6237 3.8457 7.40234C3.25977 7.18099 2.72591 6.90755 2.24414 6.58203C1.77539 6.25651 1.39779 5.8724 1.11133 5.42969C0.837891 4.98698 0.733724 4.45312 0.798828 3.82812C0.850911 3.29427 1.02018 2.85156 1.30664 2.5C1.60612 2.13542 1.97721 1.84896 2.41992 1.64062C2.87565 1.41927 3.37695 1.25651 3.92383 1.15234C4.48372 1.04818 5.05013 0.989583 5.62305 0.976562C6.20898 0.950521 6.7819 0.957031 7.3418 0.996094C7.91471 1.03516 8.42904 1.08073 8.88477 1.13281C9.34049 1.1849 9.72461 1.23698 10.0371 1.28906C10.3626 1.32812 10.5645 1.35417 10.6426 1.36719C10.9811 1.39323 11.3197 1.38672 11.6582 1.34766C11.9577 1.32161 12.2832 1.26302 12.6348 1.17188C12.9993 1.06771 13.3509 0.911458 13.6895 0.703125ZM12.9863 1.13281C13.4421 1.1849 13.8262 1.22396 14.1387 1.25C14.4512 1.26302 14.6986 1.27604 14.8809 1.28906C15.1022 1.30208 15.278 1.30859 15.4082 1.30859C15.6296 1.30859 15.8835 1.30208 16.1699 1.28906C16.4173 1.27604 16.7038 1.25651 17.0293 1.23047C17.3678 1.19141 17.7324 1.13281 18.123 1.05469C17.9408 1.25 17.791 1.4388 17.6738 1.62109C17.5566 1.79036 17.4655 1.94661 17.4004 2.08984C17.3223 2.24609 17.2572 2.38932 17.2051 2.51953C17.153 2.6888 17.0944 2.94922 17.0293 3.30078C16.9642 3.60026 16.8926 4.02344 16.8145 4.57031C16.7493 5.11719 16.6647 5.83333 16.5605 6.71875C17.0033 6.73177 17.3874 6.73828 17.7129 6.73828C18.0384 6.72526 18.3118 6.71875 18.5332 6.71875H19.1777C19.36 6.70573 19.5684 6.69271 19.8027 6.67969C20.1934 6.66667 20.7858 6.6276 21.5801 6.5625C21.6452 5.96354 21.6777 5.44922 21.6777 5.01953C21.6908 4.57682 21.6842 4.20573 21.6582 3.90625C21.6322 3.56771 21.5931 3.28125 21.541 3.04688C21.502 2.91667 21.4434 2.76042 21.3652 2.57812C21.3001 2.42188 21.209 2.23307 21.0918 2.01172C20.9876 1.77734 20.8444 1.4974 20.6621 1.17188C21.0007 1.22396 21.3001 1.26302 21.5605 1.28906C21.834 1.30208 22.0618 1.3151 22.2441 1.32812C22.4525 1.34115 22.6283 1.34766 22.7715 1.34766C22.9147 1.34766 23.1035 1.34115 23.3379 1.32812C23.5332 1.3151 23.7741 1.30859 24.0605 1.30859C24.347 1.29557 24.6986 1.27604 25.1152 1.25C25.0111 1.43229 24.9199 1.62109 24.8418 1.81641C24.7637 2.01172 24.6986 2.1875 24.6465 2.34375C24.5944 2.52604 24.5423 2.70833 24.4902 2.89062C24.4251 3.16406 24.3665 3.5612 24.3145 4.08203C24.2754 4.60286 24.2363 5.18229 24.1973 5.82031C24.1712 6.45833 24.1452 7.1224 24.1191 7.8125C24.1061 8.5026 24.0931 9.15365 24.0801 9.76562C24.0801 10.3776 24.0866 10.9245 24.0996 11.4062C24.1126 11.875 24.1387 12.207 24.1777 12.4023C24.2168 12.6367 24.2819 12.8776 24.373 13.125C24.4512 13.3464 24.5553 13.5872 24.6855 13.8477C24.8158 14.0951 24.985 14.3294 25.1934 14.5508L20.4863 14.9023C20.6816 14.7201 20.8379 14.5443 20.9551 14.375C21.0723 14.1927 21.1634 14.0365 21.2285 13.9062C21.2936 13.763 21.3392 13.6263 21.3652 13.4961C21.3783 13.3398 21.3978 13.0664 21.4238 12.6758C21.4499 12.3503 21.4759 11.888 21.502 11.2891C21.528 10.6901 21.554 9.89583 21.5801 8.90625C21.3978 8.90625 21.1764 8.91276 20.916 8.92578C20.6686 8.92578 20.4342 8.93229 20.2129 8.94531C19.9525 8.95833 19.679 8.96484 19.3926 8.96484C19.1061 8.97786 18.8066 8.99089 18.4941 9.00391C18.2337 9.02995 17.9408 9.05599 17.6152 9.08203C17.3027 9.09505 16.9902 9.11458 16.6777 9.14062C16.6517 9.6875 16.6517 10.1693 16.6777 10.5859C16.7038 10.9896 16.7428 11.3346 16.7949 11.6211C16.847 11.9596 16.9121 12.2526 16.9902 12.5C17.0684 12.7344 17.153 12.9688 17.2441 13.2031C17.3223 13.4115 17.4134 13.6328 17.5176 13.8672C17.6348 14.1016 17.752 14.3099 17.8691 14.4922C17.6217 14.4661 17.3939 14.4466 17.1855 14.4336C16.9772 14.4076 16.7949 14.3815 16.6387 14.3555C16.4564 14.3424 16.2806 14.3294 16.1113 14.3164C15.9421 14.3164 15.7402 14.3099 15.5059 14.2969C15.2975 14.2839 15.0371 14.2773 14.7246 14.2773C14.4121 14.2643 14.0475 14.2578 13.6309 14.2578C13.8783 14.0104 14.0736 13.7695 14.2168 13.5352C14.373 13.2878 14.4837 13.0664 14.5488 12.8711C14.627 12.6367 14.679 12.4219 14.7051 12.2266C14.7181 12.0573 14.7246 11.7383 14.7246 11.2695C14.7376 10.8008 14.7376 10.2669 14.7246 9.66797C14.7246 9.05599 14.7181 8.41797 14.7051 7.75391C14.6921 7.07682 14.6725 6.44531 14.6465 5.85938C14.6335 5.27344 14.6139 4.77214 14.5879 4.35547C14.5749 3.92578 14.5618 3.65885 14.5488 3.55469C14.4837 3.32031 14.3861 3.06641 14.2559 2.79297C14.1387 2.57161 13.9824 2.31771 13.7871 2.03125C13.5918 1.73177 13.3249 1.43229 12.9863 1.13281ZM25.584 1.54297C26.0267 1.59505 26.3978 1.63411 26.6973 1.66016C27.0098 1.67318 27.2637 1.69271 27.459 1.71875C27.6934 1.74479 27.8757 1.75781 28.0059 1.75781C28.1491 1.77083 28.3639 1.76432 28.6504 1.73828C28.8978 1.71224 29.2298 1.67969 29.6465 1.64062C30.0762 1.60156 30.623 1.54297 31.2871 1.46484C30.9876 1.72526 30.7467 1.97917 30.5645 2.22656C30.3952 2.46094 30.265 2.66927 30.1738 2.85156C30.0566 3.07292 29.985 3.28125 29.959 3.47656C29.9069 3.78906 29.8613 4.21875 29.8223 4.76562C29.7962 5.29948 29.7702 5.88542 29.7441 6.52344C29.7181 7.16146 29.7051 7.81901 29.7051 8.49609C29.7051 9.17318 29.7116 9.81771 29.7246 10.4297C29.7507 11.0286 29.7897 11.5625 29.8418 12.0312C29.9069 12.5 29.985 12.8385 30.0762 13.0469C30.2064 13.2812 30.3431 13.5156 30.4863 13.75C30.6165 13.9453 30.7728 14.1471 30.9551 14.3555C31.1374 14.5638 31.3457 14.7331 31.5801 14.8633C30.8118 14.8242 30.1999 14.8047 29.7441 14.8047H29.041C28.8327 14.8047 28.5658 14.8177 28.2402 14.8438C27.9668 14.8698 27.6217 14.8958 27.2051 14.9219C26.7884 14.9479 26.2871 14.987 25.7012 15.0391C26.0007 14.7135 26.235 14.401 26.4043 14.1016C26.5736 13.8021 26.7103 13.5417 26.8145 13.3203C26.9316 13.0599 27.0098 12.8125 27.0488 12.5781C27.1009 12.2396 27.14 11.8229 27.166 11.3281C27.2051 10.8203 27.2311 10.2799 27.2441 9.70703C27.2572 9.12109 27.2572 8.52865 27.2441 7.92969C27.2441 7.31771 27.2311 6.73177 27.2051 6.17188C27.179 5.61198 27.14 5.10417 27.0879 4.64844C27.0488 4.19271 26.9967 3.82812 26.9316 3.55469C26.8926 3.38542 26.8145 3.19661 26.6973 2.98828C26.5931 2.80599 26.4499 2.59766 26.2676 2.36328C26.0983 2.11589 25.8704 1.84245 25.584 1.54297ZM31.5801 1.15234C32.166 1.25651 32.6478 1.32812 33.0254 1.36719C33.403 1.40625 33.709 1.4388 33.9434 1.46484C34.2168 1.49089 34.4316 1.4974 34.5879 1.48438H35.1738C35.3822 1.48438 35.6426 1.48438 35.9551 1.48438C36.2806 1.47135 36.6842 1.46484 37.166 1.46484C37.4395 2.10286 37.6868 2.6888 37.9082 3.22266C38.1426 3.75651 38.3379 4.21224 38.4941 4.58984C38.6764 5.04557 38.8457 5.45573 39.002 5.82031C39.1842 6.27604 39.3796 6.77734 39.5879 7.32422C39.7962 7.87109 39.985 8.38542 40.1543 8.86719C40.3366 9.34896 40.4863 9.74609 40.6035 10.0586C40.7207 10.3711 40.7793 10.5143 40.7793 10.4883C40.7793 10.4753 40.7858 10.3451 40.7988 10.0977C40.8118 9.83724 40.8249 9.51823 40.8379 9.14062C40.8509 8.75 40.8639 8.32682 40.877 7.87109C40.903 7.40234 40.916 6.95312 40.916 6.52344C40.929 6.08073 40.9355 5.67708 40.9355 5.3125C40.9355 4.94792 40.9225 4.67448 40.8965 4.49219C40.8574 4.27083 40.7793 4.01693 40.6621 3.73047C40.5579 3.48307 40.4147 3.1901 40.2324 2.85156C40.0501 2.5 39.7962 2.10286 39.4707 1.66016C40.0046 1.67318 40.4408 1.67969 40.7793 1.67969C41.1178 1.67969 41.3913 1.67969 41.5996 1.67969C41.834 1.67969 42.0163 1.67318 42.1465 1.66016C42.3158 1.66016 42.5241 1.64714 42.7715 1.62109C42.9928 1.59505 43.2663 1.57552 43.5918 1.5625C43.9303 1.53646 44.347 1.50391 44.8418 1.46484C44.5553 1.72526 44.3275 1.97266 44.1582 2.20703C43.9889 2.44141 43.8522 2.64974 43.748 2.83203C43.6309 3.04036 43.5527 3.23568 43.5137 3.41797C43.4616 3.65234 43.416 4.03646 43.377 4.57031C43.3509 5.09115 43.3184 5.67708 43.2793 6.32812C43.2533 6.97917 43.2272 7.65625 43.2012 8.35938C43.1751 9.0625 43.1491 9.70703 43.123 10.293C43.123 10.7357 43.11 11.2109 43.084 11.7188C43.0579 12.1484 43.0319 12.6367 43.0059 13.1836C42.9798 13.7174 42.9473 14.2578 42.9082 14.8047L41.1699 14.8438C40.6621 13.9453 40.2324 13.1771 39.8809 12.5391C39.5423 11.888 39.2624 11.3542 39.041 10.9375C38.7936 10.4557 38.5853 10.0521 38.416 9.72656C38.2728 9.41406 38.084 9.05599 37.8496 8.65234C37.6543 8.3138 37.4069 7.89714 37.1074 7.40234C36.821 6.90755 36.4759 6.34115 36.0723 5.70312C36.0332 6.60156 36.0137 7.36979 36.0137 8.00781C36.0267 8.63281 36.0462 9.15365 36.0723 9.57031C36.1113 10.0521 36.1569 10.4557 36.209 10.7812C36.2741 11.0938 36.3652 11.4453 36.4824 11.8359C36.5866 12.1745 36.7103 12.5716 36.8535 13.0273C37.0098 13.4831 37.1986 13.9974 37.4199 14.5703C36.6517 14.5312 36.0788 14.5117 35.7012 14.5117H35.1152C34.9329 14.5117 34.6855 14.5312 34.373 14.5703C34.1126 14.5964 33.7546 14.6354 33.2988 14.6875C32.8561 14.7396 32.3027 14.8112 31.6387 14.9023C31.9512 14.5247 32.1986 14.1797 32.3809 13.8672C32.5762 13.5417 32.7259 13.2682 32.8301 13.0469C32.9603 12.7865 33.0514 12.5586 33.1035 12.3633C33.1426 12.1549 33.1686 11.7969 33.1816 11.2891C33.1947 10.7682 33.1947 10.1823 33.1816 9.53125C33.1816 8.86719 33.1686 8.17057 33.1426 7.44141C33.1296 6.71224 33.11 6.03516 33.084 5.41016C33.0579 4.78516 33.0254 4.2513 32.9863 3.80859C32.9603 3.36589 32.9408 3.09245 32.9277 2.98828C32.8887 2.81901 32.8105 2.63672 32.6934 2.44141C32.5892 2.27214 32.4525 2.08333 32.2832 1.875C32.1139 1.65365 31.8796 1.41276 31.5801 1.15234ZM44.7441 1.54297C45.1868 1.59505 45.5579 1.63411 45.8574 1.66016C46.1699 1.67318 46.4238 1.69271 46.6191 1.71875C46.8535 1.74479 47.0358 1.75781 47.166 1.75781C47.3092 1.77083 47.5241 1.76432 47.8105 1.73828C48.0579 1.71224 48.39 1.67969 48.8066 1.64062C49.2363 1.60156 49.7832 1.54297 50.4473 1.46484C50.1478 1.72526 49.9069 1.97917 49.7246 2.22656C49.5553 2.46094 49.4251 2.66927 49.334 2.85156C49.2168 3.07292 49.1452 3.28125 49.1191 3.47656C49.0671 3.78906 49.0215 4.21875 48.9824 4.76562C48.9564 5.29948 48.9303 5.88542 48.9043 6.52344C48.8783 7.16146 48.8652 7.81901 48.8652 8.49609C48.8652 9.17318 48.8717 9.81771 48.8848 10.4297C48.9108 11.0286 48.9499 11.5625 49.002 12.0312C49.0671 12.5 49.1452 12.8385 49.2363 13.0469C49.3665 13.2812 49.5033 13.5156 49.6465 13.75C49.7767 13.9453 49.9329 14.1471 50.1152 14.3555C50.2975 14.5638 50.5059 14.7331 50.7402 14.8633C49.972 14.8242 49.36 14.8047 48.9043 14.8047H48.2012C47.9928 14.8047 47.7259 14.8177 47.4004 14.8438C47.127 14.8698 46.7819 14.8958 46.3652 14.9219C45.9486 14.9479 45.4473 14.987 44.8613 15.0391C45.1608 14.7135 45.3952 14.401 45.5645 14.1016C45.7337 13.8021 45.8704 13.5417 45.9746 13.3203C46.0918 13.0599 46.1699 12.8125 46.209 12.5781C46.2611 12.2396 46.3001 11.8229 46.3262 11.3281C46.3652 10.8203 46.3913 10.2799 46.4043 9.70703C46.4173 9.12109 46.4173 8.52865 46.4043 7.92969C46.4043 7.31771 46.3913 6.73177 46.3652 6.17188C46.3392 5.61198 46.3001 5.10417 46.248 4.64844C46.209 4.19271 46.1569 3.82812 46.0918 3.55469C46.0527 3.38542 45.9746 3.19661 45.8574 2.98828C45.7533 2.80599 45.61 2.59766 45.4277 2.36328C45.2585 2.11589 45.0306 1.84245 44.7441 1.54297ZM50.7402 1.15234C51.3262 1.25651 51.8079 1.32812 52.1855 1.36719C52.5632 1.40625 52.8691 1.4388 53.1035 1.46484C53.377 1.49089 53.5918 1.4974 53.748 1.48438H54.334C54.5423 1.48438 54.8027 1.48438 55.1152 1.48438C55.4408 1.47135 55.8444 1.46484 56.3262 1.46484C56.5996 2.10286 56.847 2.6888 57.0684 3.22266C57.3027 3.75651 57.498 4.21224 57.6543 4.58984C57.8366 5.04557 58.0059 5.45573 58.1621 5.82031C58.3444 6.27604 58.5397 6.77734 58.748 7.32422C58.9564 7.87109 59.1452 8.38542 59.3145 8.86719C59.4967 9.34896 59.6465 9.74609 59.7637 10.0586C59.8809 10.3711 59.9395 10.5143 59.9395 10.4883C59.9395 10.4753 59.946 10.3451 59.959 10.0977C59.972 9.83724 59.985 9.51823 59.998 9.14062C60.0111 8.75 60.0241 8.32682 60.0371 7.87109C60.0632 7.40234 60.0762 6.95312 60.0762 6.52344C60.0892 6.08073 60.0957 5.67708 60.0957 5.3125C60.0957 4.94792 60.0827 4.67448 60.0566 4.49219C60.0176 4.27083 59.9395 4.01693 59.8223 3.73047C59.7181 3.48307 59.5749 3.1901 59.3926 2.85156C59.2103 2.5 58.9564 2.10286 58.6309 1.66016C59.1647 1.67318 59.6009 1.67969 59.9395 1.67969C60.278 1.67969 60.5514 1.67969 60.7598 1.67969C60.9941 1.67969 61.1764 1.67318 61.3066 1.66016C61.4759 1.66016 61.6842 1.64714 61.9316 1.62109C62.153 1.59505 62.4264 1.57552 62.752 1.5625C63.0905 1.53646 63.5072 1.50391 64.002 1.46484C63.7155 1.72526 63.4876 1.97266 63.3184 2.20703C63.1491 2.44141 63.0124 2.64974 62.9082 2.83203C62.791 3.04036 62.7129 3.23568 62.6738 3.41797C62.6217 3.65234 62.5762 4.03646 62.5371 4.57031C62.5111 5.09115 62.4785 5.67708 62.4395 6.32812C62.4134 6.97917 62.3874 7.65625 62.3613 8.35938C62.3353 9.0625 62.3092 9.70703 62.2832 10.293C62.2832 10.7357 62.2702 11.2109 62.2441 11.7188C62.2181 12.1484 62.1921 12.6367 62.166 13.1836C62.14 13.7174 62.1074 14.2578 62.0684 14.8047L60.3301 14.8438C59.8223 13.9453 59.3926 13.1771 59.041 12.5391C58.7025 11.888 58.4225 11.3542 58.2012 10.9375C57.9538 10.4557 57.7454 10.0521 57.5762 9.72656C57.4329 9.41406 57.2441 9.05599 57.0098 8.65234C56.8145 8.3138 56.5671 7.89714 56.2676 7.40234C55.9811 6.90755 55.6361 6.34115 55.2324 5.70312C55.1934 6.60156 55.1738 7.36979 55.1738 8.00781C55.1868 8.63281 55.2064 9.15365 55.2324 9.57031C55.2715 10.0521 55.3171 10.4557 55.3691 10.7812C55.4342 11.0938 55.5254 11.4453 55.6426 11.8359C55.7467 12.1745 55.8704 12.5716 56.0137 13.0273C56.1699 13.4831 56.3587 13.9974 56.5801 14.5703C55.8118 14.5312 55.2389 14.5117 54.8613 14.5117H54.2754C54.0931 14.5117 53.8457 14.5312 53.5332 14.5703C53.2728 14.5964 52.9147 14.6354 52.459 14.6875C52.0163 14.7396 51.4629 14.8112 50.7988 14.9023C51.1113 14.5247 51.3587 14.1797 51.541 13.8672C51.7363 13.5417 51.8861 13.2682 51.9902 13.0469C52.1204 12.7865 52.2116 12.5586 52.2637 12.3633C52.3027 12.1549 52.3288 11.7969 52.3418 11.2891C52.3548 10.7682 52.3548 10.1823 52.3418 9.53125C52.3418 8.86719 52.3288 8.17057 52.3027 7.44141C52.2897 6.71224 52.2702 6.03516 52.2441 5.41016C52.2181 4.78516 52.1855 4.2513 52.1465 3.80859C52.1204 3.36589 52.1009 3.09245 52.0879 2.98828C52.0488 2.81901 51.9707 2.63672 51.8535 2.44141C51.7493 2.27214 51.6126 2.08333 51.4434 1.875C51.2741 1.65365 51.0397 1.41276 50.7402 1.15234ZM71.3457 0.898438C72.179 0.885417 72.8626 1.03516 73.3965 1.34766C73.9434 1.66016 74.3861 2.03125 74.7246 2.46094C75.0632 2.89062 75.3236 3.32682 75.5059 3.76953C75.6882 4.19922 75.8314 4.53776 75.9355 4.78516C75.9616 4.85026 76.0137 4.9349 76.0918 5.03906C76.1569 5.13021 76.248 5.24089 76.3652 5.37109C76.4954 5.48828 76.6582 5.625 76.8535 5.78125C76.4499 5.79427 76.0918 5.80729 75.7793 5.82031C75.4668 5.82031 75.1999 5.82682 74.9785 5.83984C74.7311 5.85286 74.5098 5.86589 74.3145 5.87891C74.1191 5.89193 73.8783 5.91146 73.5918 5.9375C73.3314 5.96354 73.0124 5.98958 72.6348 6.01562C72.2572 6.04167 71.7949 6.08073 71.248 6.13281C71.5736 5.74219 71.8275 5.39714 72.0098 5.09766C72.2051 4.78516 72.3483 4.51172 72.4395 4.27734C72.5436 4.02995 72.6022 3.8151 72.6152 3.63281C72.6413 3.45052 72.6348 3.29427 72.5957 3.16406C72.5176 2.86458 72.3158 2.64974 71.9902 2.51953C71.0527 2.25911 70.2324 2.46745 69.5293 3.14453C68.8392 3.80859 68.3444 4.90234 68.0449 6.42578C67.9017 7.18099 67.765 7.96875 67.6348 8.78906C67.5176 9.59635 67.472 10.3385 67.498 11.0156C67.5241 11.6797 67.6543 12.2201 67.8887 12.6367C68.123 13.0534 68.5267 13.2487 69.0996 13.2227C69.6595 13.1966 70.1348 13.1055 70.5254 12.9492C70.916 12.7799 71.2285 12.5846 71.4629 12.3633C71.6973 12.1289 71.86 11.8815 71.9512 11.6211C72.0553 11.3477 72.0944 11.0938 72.0684 10.8594C72.0163 10.6771 71.8796 10.4818 71.6582 10.2734C71.4629 10.0911 71.1699 9.88932 70.7793 9.66797C70.3887 9.43359 69.8288 9.19271 69.0996 8.94531C69.7897 8.90625 70.3561 8.88021 70.7988 8.86719C71.2546 8.84115 71.6126 8.8151 71.873 8.78906C72.1855 8.76302 72.4264 8.74349 72.5957 8.73047C72.752 8.71745 72.9798 8.70443 73.2793 8.69141C73.5397 8.67839 73.8717 8.67188 74.2754 8.67188C74.6921 8.67188 75.2129 8.66536 75.8379 8.65234C75.6035 8.88672 75.4212 9.10156 75.291 9.29688C75.2259 9.40104 75.1673 9.49219 75.1152 9.57031C75.0632 9.70052 75.0436 9.96745 75.0566 10.3711C75.0566 10.7096 75.0827 11.2109 75.1348 11.875C75.1868 12.526 75.2845 13.418 75.4277 14.5508L72.8301 14.9023L72.9473 12.2656C72.6478 12.9818 72.2702 13.5156 71.8145 13.8672C71.3717 14.2188 70.9486 14.4661 70.5449 14.6094C70.0632 14.7786 69.5618 14.8568 69.041 14.8438C68.3639 14.7786 67.6868 14.6224 67.0098 14.375C66.3327 14.1276 65.7337 13.75 65.2129 13.2422C64.6921 12.7214 64.2884 12.0508 64.002 11.2305C63.7285 10.4102 63.6439 9.39453 63.748 8.18359C63.8652 6.97266 64.1517 5.91797 64.6074 5.01953C65.0762 4.10807 65.6556 3.35286 66.3457 2.75391C67.0358 2.15495 67.8105 1.70573 68.6699 1.40625C69.5423 1.09375 70.4342 0.924479 71.3457 0.898438ZM95.623 0.703125C95.4408 1.11979 95.278 1.48438 95.1348 1.79688C94.9915 2.10938 94.8678 2.3763 94.7637 2.59766C94.6465 2.84505 94.5488 3.06641 94.4707 3.26172C94.4056 3.40495 94.321 3.60026 94.2168 3.84766C94.1126 4.06901 93.9824 4.36198 93.8262 4.72656C93.6829 5.07812 93.4941 5.53385 93.2598 6.09375C93.1426 5.61198 92.9993 5.1888 92.8301 4.82422C92.6608 4.45964 92.4785 4.14062 92.2832 3.86719C92.0879 3.59375 91.8796 3.3724 91.6582 3.20312C91.4499 3.02083 91.2415 2.87109 91.0332 2.75391C90.5514 2.49349 90.0436 2.35026 89.5098 2.32422C88.8066 2.36328 88.2533 2.48047 87.8496 2.67578C87.459 2.85807 87.1725 3.07292 86.9902 3.32031C86.8079 3.55469 86.7103 3.80208 86.6973 4.0625C86.6842 4.3099 86.7168 4.51823 86.7949 4.6875C86.86 4.84375 87.0879 5.02604 87.4785 5.23438C87.8822 5.44271 88.3639 5.68359 88.9238 5.95703C89.4967 6.21745 90.1087 6.51693 90.7598 6.85547C91.4108 7.18099 92.0098 7.54557 92.5566 7.94922C93.1165 8.33984 93.5853 8.76953 93.9629 9.23828C94.3535 9.69401 94.5684 10.1823 94.6074 10.7031C94.6465 11.3672 94.64 11.9661 94.5879 12.5C94.5358 13.0339 94.3535 13.4896 94.041 13.8672C93.7285 14.2448 93.2402 14.5443 92.5762 14.7656C91.9251 14.987 91.0202 15.1237 89.8613 15.1758C88.6634 15.2279 87.6803 15.1628 86.9121 14.9805C86.1439 14.7982 85.5189 14.5508 85.0371 14.2383C84.5684 13.9258 84.2168 13.5807 83.9824 13.2031C83.7611 12.8255 83.5983 12.4674 83.4941 12.1289C83.39 11.7773 83.3184 11.4779 83.2793 11.2305C83.2402 10.9701 83.1751 10.8138 83.084 10.7617C82.9798 10.6966 82.8757 10.638 82.7715 10.5859C82.6803 10.5339 82.5827 10.4883 82.4785 10.4492C82.3743 10.3971 82.2702 10.3516 82.166 10.3125L87.8496 9.39453C87.5241 9.65495 87.2702 9.89583 87.0879 10.1172C86.9186 10.3385 86.7884 10.5339 86.6973 10.7031C86.5931 10.8984 86.5215 11.0807 86.4824 11.25C86.4564 11.4323 86.515 11.6602 86.6582 11.9336C86.8014 12.207 86.9967 12.474 87.2441 12.7344C87.5046 12.9818 87.804 13.1901 88.1426 13.3594C88.4811 13.5286 88.8327 13.6003 89.1973 13.5742C89.653 13.5352 90.0241 13.4245 90.3105 13.2422C90.597 13.0469 90.8118 12.806 90.9551 12.5195C91.1113 12.2331 91.2025 11.9206 91.2285 11.582C91.2546 11.2435 91.222 10.9115 91.1309 10.5859C91.0527 10.2474 90.9225 9.9349 90.7402 9.64844C90.5579 9.34896 90.3431 9.10156 90.0957 8.90625C89.8743 8.75 89.5293 8.60026 89.0605 8.45703C88.6048 8.3138 88.0905 8.15755 87.5176 7.98828C86.9577 7.81901 86.3783 7.6237 85.7793 7.40234C85.1934 7.18099 84.6595 6.90755 84.1777 6.58203C83.709 6.25651 83.3314 5.8724 83.0449 5.42969C82.7715 4.98698 82.6673 4.45312 82.7324 3.82812C82.7845 3.29427 82.9538 2.85156 83.2402 2.5C83.5397 2.13542 83.9108 1.84896 84.3535 1.64062C84.8092 1.41927 85.3105 1.25651 85.8574 1.15234C86.4173 1.04818 86.9837 0.989583 87.5566 0.976562C88.1426 0.950521 88.7155 0.957031 89.2754 0.996094C89.8483 1.03516 90.3626 1.08073 90.8184 1.13281C91.2741 1.1849 91.6582 1.23698 91.9707 1.28906C92.2962 1.32812 92.498 1.35417 92.5762 1.36719C92.9147 1.39323 93.2533 1.38672 93.5918 1.34766C93.8913 1.32161 94.2168 1.26302 94.5684 1.17188C94.9329 1.06771 95.2845 0.911458 95.623 0.703125ZM95.5254 1.26953C95.916 1.34766 96.248 1.40625 96.5215 1.44531C96.7949 1.48438 97.0228 1.51693 97.2051 1.54297C97.4134 1.56901 97.5892 1.58203 97.7324 1.58203C97.8757 1.58203 98.071 1.57552 98.3184 1.5625C98.5397 1.54948 98.8197 1.54297 99.1582 1.54297C99.4967 1.52995 99.9264 1.51042 100.447 1.48438C100.148 1.69271 99.9069 1.86849 99.7246 2.01172C99.5423 2.15495 99.4056 2.27865 99.3145 2.38281C99.1973 2.5 99.1257 2.59766 99.0996 2.67578C99.0736 2.72786 99.0475 2.92318 99.0215 3.26172C98.9954 3.58724 98.9694 4.00391 98.9434 4.51172C98.9303 5.00651 98.9303 5.56641 98.9434 6.19141C98.9564 6.80339 98.9889 7.42839 99.041 8.06641C99.1061 8.70443 99.1973 9.32292 99.3145 9.92188C99.4316 10.5078 99.5879 11.0221 99.7832 11.4648C99.9915 11.9076 100.239 12.2526 100.525 12.5C100.825 12.7474 101.183 12.8385 101.6 12.7734C102.146 12.6953 102.589 12.4284 102.928 11.9727C103.266 11.5169 103.52 10.9635 103.689 10.3125C103.872 9.66146 103.982 8.96484 104.021 8.22266C104.074 7.46745 104.08 6.76432 104.041 6.11328C104.015 5.44922 103.963 4.8763 103.885 4.39453C103.807 3.91276 103.735 3.61328 103.67 3.49609C103.592 3.36589 103.488 3.21615 103.357 3.04688C103.253 2.90365 103.117 2.74089 102.947 2.55859C102.778 2.36328 102.583 2.15495 102.361 1.93359C102.765 1.94661 103.13 1.95964 103.455 1.97266C103.781 1.97266 104.054 1.97917 104.275 1.99219C104.536 2.00521 104.77 2.01823 104.979 2.03125C105.187 2.04427 105.447 2.0638 105.76 2.08984C106.02 2.11589 106.352 2.14193 106.756 2.16797C107.173 2.19401 107.667 2.23307 108.24 2.28516C108.019 2.33724 107.837 2.40885 107.693 2.5C107.563 2.59115 107.459 2.6888 107.381 2.79297C107.29 2.91016 107.225 3.02734 107.186 3.14453C107.146 3.2487 107.114 3.5612 107.088 4.08203C107.075 4.58984 107.049 5.20833 107.01 5.9375C106.984 6.65365 106.938 7.4349 106.873 8.28125C106.808 9.11458 106.704 9.90885 106.561 10.6641C106.43 11.4193 106.255 12.0898 106.033 12.6758C105.825 13.2617 105.551 13.6654 105.213 13.8867C104.718 14.2122 104.197 14.4466 103.65 14.5898C103.104 14.7201 102.55 14.7917 101.99 14.8047C101.43 14.8047 100.877 14.7591 100.33 14.668C99.7962 14.5638 99.2819 14.4401 98.7871 14.2969C98.2793 14.1406 97.8561 13.7891 97.5176 13.2422C97.1921 12.6953 96.9316 12.0508 96.7363 11.3086C96.554 10.5534 96.4173 9.74609 96.3262 8.88672C96.248 8.01432 96.196 7.17448 96.1699 6.36719C96.1569 5.5599 96.1569 4.83073 96.1699 4.17969C96.196 3.51562 96.2155 3.01432 96.2285 2.67578C96.2285 2.50651 96.2025 2.34375 96.1504 2.1875C96.1113 2.04427 96.0397 1.89453 95.9355 1.73828C95.8444 1.56901 95.7077 1.41276 95.5254 1.26953ZM107.518 1.07422C107.973 1.13932 108.37 1.19141 108.709 1.23047C109.048 1.26953 109.327 1.30208 109.549 1.32812C109.809 1.35417 110.031 1.3737 110.213 1.38672C110.421 1.41276 110.675 1.39974 110.975 1.34766C111.287 1.29557 111.619 1.24349 111.971 1.19141C112.322 1.1263 112.687 1.07422 113.064 1.03516C113.442 0.996094 113.807 0.996094 114.158 1.03516C114.393 1.0612 114.692 1.11328 115.057 1.19141C115.421 1.26953 115.805 1.39323 116.209 1.5625C116.626 1.73177 117.042 1.95312 117.459 2.22656C117.876 2.5 118.253 2.84505 118.592 3.26172C118.93 3.67839 119.21 4.17318 119.432 4.74609C119.653 5.31901 119.777 5.98958 119.803 6.75781C119.842 7.90365 119.738 8.94531 119.49 9.88281C119.243 10.8203 118.859 11.6211 118.338 12.2852C117.83 12.9492 117.186 13.4701 116.404 13.8477C115.623 14.2253 114.712 14.4336 113.67 14.4727C112.876 14.5378 112.094 14.5964 111.326 14.6484C111.001 14.6745 110.656 14.694 110.291 14.707C109.939 14.7201 109.588 14.7331 109.236 14.7461C108.885 14.7461 108.546 14.7396 108.221 14.7266C107.895 14.7135 107.596 14.694 107.322 14.668C107.622 14.5247 107.863 14.3815 108.045 14.2383C108.24 14.0951 108.39 13.9714 108.494 13.8672C108.611 13.737 108.696 13.6198 108.748 13.5156C108.774 13.3724 108.813 13.0924 108.865 12.6758C108.904 12.3242 108.956 11.8229 109.021 11.1719C109.087 10.5208 109.165 9.63542 109.256 8.51562L109.373 7.12891C109.438 6.26953 109.464 5.56641 109.451 5.01953C109.451 4.47266 109.438 4.04297 109.412 3.73047C109.373 3.36589 109.321 3.09896 109.256 2.92969C109.204 2.78646 109.106 2.61719 108.963 2.42188C108.833 2.26562 108.65 2.07682 108.416 1.85547C108.195 1.62109 107.895 1.36068 107.518 1.07422ZM111.639 8.26172C111.665 9.42057 111.723 10.3125 111.814 10.9375C111.919 11.5495 112.029 12.0052 112.146 12.3047C112.29 12.6432 112.446 12.8451 112.615 12.9102C112.863 12.9102 113.143 12.806 113.455 12.5977C113.768 12.3763 114.074 12.0443 114.373 11.6016C114.686 11.1589 114.965 10.6055 115.213 9.94141C115.473 9.27734 115.662 8.5026 115.779 7.61719C115.896 6.73177 115.864 5.95052 115.682 5.27344C115.499 4.59635 115.258 4.02995 114.959 3.57422C114.66 3.10547 114.354 2.75391 114.041 2.51953C113.729 2.27214 113.494 2.14844 113.338 2.14844C113.156 2.14844 112.993 2.20052 112.85 2.30469C112.706 2.39583 112.505 2.61068 112.244 2.94922C112.114 3.13151 111.997 3.39193 111.893 3.73047C111.801 4.02995 111.723 4.42708 111.658 4.92188C111.593 5.41667 111.574 6.05469 111.6 6.83594L111.639 8.26172ZM133.064 0.703125C132.882 1.11979 132.719 1.48438 132.576 1.79688C132.433 2.10938 132.309 2.3763 132.205 2.59766C132.088 2.84505 131.99 3.06641 131.912 3.26172C131.847 3.40495 131.762 3.60026 131.658 3.84766C131.554 4.06901 131.424 4.36198 131.268 4.72656C131.124 5.07812 130.936 5.53385 130.701 6.09375C130.584 5.61198 130.441 5.1888 130.271 4.82422C130.102 4.45964 129.92 4.14062 129.725 3.86719C129.529 3.59375 129.321 3.3724 129.1 3.20312C128.891 3.02083 128.683 2.87109 128.475 2.75391C127.993 2.49349 127.485 2.35026 126.951 2.32422C126.248 2.36328 125.695 2.48047 125.291 2.67578C124.9 2.85807 124.614 3.07292 124.432 3.32031C124.249 3.55469 124.152 3.80208 124.139 4.0625C124.126 4.3099 124.158 4.51823 124.236 4.6875C124.301 4.84375 124.529 5.02604 124.92 5.23438C125.324 5.44271 125.805 5.68359 126.365 5.95703C126.938 6.21745 127.55 6.51693 128.201 6.85547C128.852 7.18099 129.451 7.54557 129.998 7.94922C130.558 8.33984 131.027 8.76953 131.404 9.23828C131.795 9.69401 132.01 10.1823 132.049 10.7031C132.088 11.3672 132.081 11.9661 132.029 12.5C131.977 13.0339 131.795 13.4896 131.482 13.8672C131.17 14.2448 130.682 14.5443 130.018 14.7656C129.367 14.987 128.462 15.1237 127.303 15.1758C126.105 15.2279 125.122 15.1628 124.354 14.9805C123.585 14.7982 122.96 14.5508 122.479 14.2383C122.01 13.9258 121.658 13.5807 121.424 13.2031C121.202 12.8255 121.04 12.4674 120.936 12.1289C120.831 11.7773 120.76 11.4779 120.721 11.2305C120.682 10.9701 120.617 10.8138 120.525 10.7617C120.421 10.6966 120.317 10.638 120.213 10.5859C120.122 10.5339 120.024 10.4883 119.92 10.4492C119.816 10.3971 119.712 10.3516 119.607 10.3125L125.291 9.39453C124.965 9.65495 124.712 9.89583 124.529 10.1172C124.36 10.3385 124.23 10.5339 124.139 10.7031C124.035 10.8984 123.963 11.0807 123.924 11.25C123.898 11.4323 123.956 11.6602 124.1 11.9336C124.243 12.207 124.438 12.474 124.686 12.7344C124.946 12.9818 125.245 13.1901 125.584 13.3594C125.923 13.5286 126.274 13.6003 126.639 13.5742C127.094 13.5352 127.465 13.4245 127.752 13.2422C128.038 13.0469 128.253 12.806 128.396 12.5195C128.553 12.2331 128.644 11.9206 128.67 11.582C128.696 11.2435 128.663 10.9115 128.572 10.5859C128.494 10.2474 128.364 9.9349 128.182 9.64844C127.999 9.34896 127.785 9.10156 127.537 8.90625C127.316 8.75 126.971 8.60026 126.502 8.45703C126.046 8.3138 125.532 8.15755 124.959 7.98828C124.399 7.81901 123.82 7.6237 123.221 7.40234C122.635 7.18099 122.101 6.90755 121.619 6.58203C121.15 6.25651 120.773 5.8724 120.486 5.42969C120.213 4.98698 120.109 4.45312 120.174 3.82812C120.226 3.29427 120.395 2.85156 120.682 2.5C120.981 2.13542 121.352 1.84896 121.795 1.64062C122.251 1.41927 122.752 1.25651 123.299 1.15234C123.859 1.04818 124.425 0.989583 124.998 0.976562C125.584 0.950521 126.157 0.957031 126.717 0.996094C127.29 1.03516 127.804 1.08073 128.26 1.13281C128.715 1.1849 129.1 1.23698 129.412 1.28906C129.738 1.32812 129.939 1.35417 130.018 1.36719C130.356 1.39323 130.695 1.38672 131.033 1.34766C131.333 1.32161 131.658 1.26302 132.01 1.17188C132.374 1.06771 132.726 0.911458 133.064 0.703125ZM3.79688 24.8398C4.17448 24.9049 4.50651 24.9505 4.79297 24.9766C5.09245 25.0026 5.33984 25.0221 5.53516 25.0352C5.76953 25.0482 5.97135 25.0547 6.14062 25.0547C6.3099 25.0547 6.55078 25.0417 6.86328 25.0156C7.1237 24.9896 7.46224 24.957 7.87891 24.918C8.30859 24.8789 8.83594 24.8138 9.46094 24.7227C9.27865 24.7747 9.10938 24.9245 8.95312 25.1719C8.8099 25.4062 8.67969 25.6602 8.5625 25.9336C8.41927 26.2591 8.29557 26.6172 8.19141 27.0078C8.10026 27.3594 7.98307 27.8411 7.83984 28.4531C7.70964 29.0651 7.57943 29.7292 7.44922 30.4453C7.33203 31.1615 7.24089 31.8906 7.17578 32.6328C7.11068 33.362 7.09766 34.0326 7.13672 34.6445C7.1888 35.2565 7.3125 35.7643 7.50781 36.168C7.70312 36.5586 8.0026 36.7669 8.40625 36.793C9.01823 36.8451 9.52604 36.8516 9.92969 36.8125C10.3464 36.7604 10.6849 36.6888 10.9453 36.5977C11.2057 36.5065 11.4076 36.4023 11.5508 36.2852C11.694 36.1549 11.8047 36.0312 11.8828 35.9141C12.0911 35.6146 12.306 35.2305 12.5273 34.7617C12.7487 34.293 12.944 33.8438 13.1133 33.4141C13.2956 32.9844 13.4453 32.6198 13.5625 32.3203C13.6797 32.0208 13.7383 31.8776 13.7383 31.8906C13.7383 31.9167 13.7318 32.0664 13.7188 32.3398C13.7188 32.6003 13.7122 32.9193 13.6992 33.2969C13.6992 33.6615 13.6927 34.0456 13.6797 34.4492C13.6797 34.8529 13.6732 35.1979 13.6602 35.4844C13.6471 35.7188 13.6341 35.9792 13.6211 36.2656C13.6081 36.513 13.5951 36.806 13.582 37.1445C13.582 37.4831 13.569 37.8542 13.543 38.2578C12.9961 38.2188 12.4753 38.1927 11.9805 38.1797C11.4857 38.1667 11.0495 38.1602 10.6719 38.1602C10.2292 38.1602 9.81901 38.1667 9.44141 38.1797C9.03776 38.1927 8.56901 38.2122 8.03516 38.2383C7.57943 38.2643 7.01302 38.2969 6.33594 38.3359C5.65885 38.362 4.8776 38.401 3.99219 38.4531C4.09635 38.2708 4.18099 38.1016 4.24609 37.9453C4.32422 37.7891 4.38281 37.6589 4.42188 37.5547C4.47396 37.4245 4.50651 37.3138 4.51953 37.2227C4.59766 36.806 4.66276 36.2786 4.71484 35.6406C4.76693 34.9896 4.80599 34.2995 4.83203 33.5703C4.87109 32.8411 4.89062 32.099 4.89062 31.3438C4.90365 30.5755 4.90365 29.8659 4.89062 29.2148C4.8776 28.5638 4.85156 27.9974 4.8125 27.5156C4.78646 27.0339 4.7474 26.7018 4.69531 26.5195C4.63021 26.3112 4.55208 26.1029 4.46094 25.8945C4.38281 25.7122 4.28516 25.5299 4.16797 25.3477C4.0638 25.1523 3.9401 24.9831 3.79688 24.8398ZM17.3125 25.7773C17.9635 25.8164 18.5104 25.849 18.9531 25.875C19.4089 25.888 19.7865 25.901 20.0859 25.9141C20.4245 25.9271 20.7109 25.9271 20.9453 25.9141C21.1797 25.901 21.4987 25.8685 21.9023 25.8164C22.2409 25.7773 22.6901 25.7188 23.25 25.6406C23.8229 25.5495 24.5326 25.4323 25.3789 25.2891C25.0794 25.5885 24.8451 25.862 24.6758 26.1094C24.5195 26.3438 24.3958 26.5456 24.3047 26.7148C24.2005 26.9232 24.1289 27.099 24.0898 27.2422C24.0638 27.3724 24.0898 27.6979 24.168 28.2188C24.2461 28.7396 24.3568 29.3581 24.5 30.0742C24.6432 30.7773 24.7995 31.5326 24.9688 32.3398C25.138 33.1341 25.3073 33.8828 25.4766 34.5859C25.6458 35.276 25.7956 35.8685 25.9258 36.3633C26.069 36.8451 26.1732 37.1315 26.2383 37.2227C26.4336 37.4961 26.5573 37.6784 26.6094 37.7695C26.6615 37.8477 26.7526 37.9193 26.8828 37.9844C26.9349 38.0104 27.0195 38.0495 27.1367 38.1016C27.2409 38.1536 27.3776 38.2188 27.5469 38.2969C27.7292 38.375 27.957 38.4661 28.2305 38.5703C27.7227 38.5964 27.2865 38.6159 26.9219 38.6289C26.5573 38.6289 26.2578 38.6354 26.0234 38.6484C25.75 38.6615 25.5156 38.6745 25.3203 38.6875C25.125 38.6875 24.8906 38.7005 24.6172 38.7266C24.3828 38.7526 24.0768 38.7786 23.6992 38.8047C23.3346 38.8307 22.9049 38.8568 22.4102 38.8828C22.6706 38.7005 22.8789 38.5378 23.0352 38.3945C23.2044 38.2383 23.3346 38.1081 23.4258 38.0039C23.5299 37.8737 23.6016 37.7565 23.6406 37.6523C23.6667 37.5352 23.6862 37.3594 23.6992 37.125C23.7122 36.9167 23.7122 36.6432 23.6992 36.3047C23.6862 35.9531 23.6536 35.4974 23.6016 34.9375L18.4648 35.4648C18.3346 35.6862 18.237 35.8815 18.1719 36.0508C18.1068 36.207 18.0612 36.3438 18.0352 36.4609C17.9961 36.6042 17.9831 36.7214 17.9961 36.8125C18.0221 36.9167 18.0677 37.0404 18.1328 37.1836C18.1979 37.3138 18.2891 37.4701 18.4062 37.6523C18.5365 37.8216 18.7253 38.0234 18.9727 38.2578C18.6471 38.2448 18.3151 38.2383 17.9766 38.2383C17.638 38.2383 17.3255 38.2448 17.0391 38.2578C16.7005 38.2708 16.3685 38.2839 16.043 38.2969C15.7174 38.3099 15.3464 38.3294 14.9297 38.3555C14.5781 38.3815 14.168 38.4141 13.6992 38.4531C13.2174 38.4792 12.7031 38.5182 12.1562 38.5703C12.4948 38.4141 12.7812 38.2578 13.0156 38.1016C13.25 37.9323 13.4453 37.776 13.6016 37.6328C13.7839 37.4766 13.9401 37.3268 14.0703 37.1836C14.1615 37.0534 14.3438 36.7539 14.6172 36.2852C14.8906 35.8034 15.1966 35.237 15.5352 34.5859C15.8867 33.9349 16.2513 33.2383 16.6289 32.4961C17.0195 31.7539 17.3711 31.0573 17.6836 30.4062C17.9961 29.7422 18.25 29.1693 18.4453 28.6875C18.6406 28.2057 18.7383 27.8932 18.7383 27.75C18.7122 27.5807 18.6471 27.3919 18.543 27.1836C18.4518 27.0013 18.3086 26.793 18.1133 26.5586C17.931 26.3242 17.6641 26.0638 17.3125 25.7773ZM23.3672 33.4922C23.2891 33.0365 23.2174 32.6458 23.1523 32.3203C23.0872 31.9818 23.0352 31.7018 22.9961 31.4805C22.944 31.2201 22.9049 30.9922 22.8789 30.7969C22.8398 30.6146 22.7943 30.3802 22.7422 30.0938C22.6901 29.8464 22.625 29.5404 22.5469 29.1758C22.4818 28.7982 22.3971 28.349 22.293 27.8281C21.5508 29.3125 20.9714 30.4648 20.5547 31.2852C20.151 32.0924 19.8581 32.6849 19.6758 33.0625C19.4544 33.5052 19.3307 33.7656 19.3047 33.8438L23.3672 33.4922ZM27.0195 25.2695C27.4102 25.3477 27.7422 25.4062 28.0156 25.4453C28.2891 25.4844 28.5169 25.5169 28.6992 25.543C28.9076 25.569 29.0833 25.582 29.2266 25.582C29.3698 25.582 29.5651 25.5755 29.8125 25.5625C30.0339 25.5495 30.3138 25.543 30.6523 25.543C30.9909 25.5299 31.4206 25.5104 31.9414 25.4844C31.6419 25.6927 31.401 25.8685 31.2188 26.0117C31.0365 26.1549 30.8997 26.2786 30.8086 26.3828C30.6914 26.5 30.6198 26.5977 30.5938 26.6758C30.5677 26.7279 30.5417 26.9232 30.5156 27.2617C30.4896 27.5872 30.4635 28.0039 30.4375 28.5117C30.4245 29.0065 30.4245 29.5664 30.4375 30.1914C30.4505 30.8034 30.4831 31.4284 30.5352 32.0664C30.6003 32.7044 30.6914 33.3229 30.8086 33.9219C30.9258 34.5078 31.082 35.0221 31.2773 35.4648C31.4857 35.9076 31.7331 36.2526 32.0195 36.5C32.319 36.7474 32.6771 36.8385 33.0938 36.7734C33.6406 36.6953 34.0833 36.4284 34.4219 35.9727C34.7604 35.5169 35.0143 34.9635 35.1836 34.3125C35.3659 33.6615 35.4766 32.9648 35.5156 32.2227C35.5677 31.4674 35.5742 30.7643 35.5352 30.1133C35.5091 29.4492 35.457 28.8763 35.3789 28.3945C35.3008 27.9128 35.2292 27.6133 35.1641 27.4961C35.0859 27.3659 34.9818 27.2161 34.8516 27.0469C34.7474 26.9036 34.6107 26.7409 34.4414 26.5586C34.2721 26.3633 34.0768 26.1549 33.8555 25.9336C34.2591 25.9466 34.6237 25.9596 34.9492 25.9727C35.2747 25.9727 35.5482 25.9792 35.7695 25.9922C36.0299 26.0052 36.2643 26.0182 36.4727 26.0312C36.681 26.0443 36.9414 26.0638 37.2539 26.0898C37.5143 26.1159 37.8464 26.1419 38.25 26.168C38.6667 26.194 39.1615 26.2331 39.7344 26.2852C39.513 26.3372 39.3307 26.4089 39.1875 26.5C39.0573 26.5911 38.9531 26.6888 38.875 26.793C38.7839 26.9102 38.7188 27.0273 38.6797 27.1445C38.6406 27.2487 38.6081 27.5612 38.582 28.082C38.569 28.5898 38.543 29.2083 38.5039 29.9375C38.4779 30.6536 38.4323 31.4349 38.3672 32.2812C38.3021 33.1146 38.1979 33.9089 38.0547 34.6641C37.9245 35.4193 37.7487 36.0898 37.5273 36.6758C37.319 37.2617 37.0456 37.6654 36.707 37.8867C36.2122 38.2122 35.6914 38.4466 35.1445 38.5898C34.5977 38.7201 34.0443 38.7917 33.4844 38.8047C32.9245 38.8047 32.3711 38.7591 31.8242 38.668C31.2904 38.5638 30.776 38.4401 30.2812 38.2969C29.7734 38.1406 29.3503 37.7891 29.0117 37.2422C28.6862 36.6953 28.4258 36.0508 28.2305 35.3086C28.0482 34.5534 27.9115 33.7461 27.8203 32.8867C27.7422 32.0143 27.6901 31.1745 27.6641 30.3672C27.651 29.5599 27.651 28.8307 27.6641 28.1797C27.6901 27.5156 27.7096 27.0143 27.7227 26.6758C27.7227 26.5065 27.6966 26.3438 27.6445 26.1875C27.6055 26.0443 27.5339 25.8945 27.4297 25.7383C27.3385 25.569 27.2018 25.4128 27.0195 25.2695ZM39.3242 25.1523C39.9102 25.2565 40.3919 25.3281 40.7695 25.3672C41.1471 25.4062 41.4531 25.4388 41.6875 25.4648C41.9609 25.4909 42.1758 25.4974 42.332 25.4844H42.918C43.1263 25.4844 43.3867 25.4844 43.6992 25.4844C44.0247 25.4714 44.4284 25.4648 44.9102 25.4648C45.1836 26.1029 45.431 26.6888 45.6523 27.2227C45.8867 27.7565 46.082 28.2122 46.2383 28.5898C46.4206 29.0456 46.5898 29.4557 46.7461 29.8203C46.9284 30.276 47.1237 30.7773 47.332 31.3242C47.5404 31.8711 47.7292 32.3854 47.8984 32.8672C48.0807 33.349 48.2305 33.7461 48.3477 34.0586C48.4648 34.3711 48.5234 34.5143 48.5234 34.4883C48.5234 34.4753 48.5299 34.3451 48.543 34.0977C48.556 33.8372 48.569 33.5182 48.582 33.1406C48.5951 32.75 48.6081 32.3268 48.6211 31.8711C48.6471 31.4023 48.6602 30.9531 48.6602 30.5234C48.6732 30.0807 48.6797 29.6771 48.6797 29.3125C48.6797 28.9479 48.6667 28.6745 48.6406 28.4922C48.6016 28.2708 48.5234 28.0169 48.4062 27.7305C48.3021 27.4831 48.1589 27.1901 47.9766 26.8516C47.7943 26.5 47.5404 26.1029 47.2148 25.6602C47.7487 25.6732 48.1849 25.6797 48.5234 25.6797C48.862 25.6797 49.1354 25.6797 49.3438 25.6797C49.5781 25.6797 49.7604 25.6732 49.8906 25.6602C50.0599 25.6602 50.2682 25.6471 50.5156 25.6211C50.737 25.5951 51.0104 25.5755 51.3359 25.5625C51.6745 25.5365 52.0911 25.5039 52.5859 25.4648C52.2995 25.7253 52.0716 25.9727 51.9023 26.207C51.7331 26.4414 51.5964 26.6497 51.4922 26.832C51.375 27.0404 51.2969 27.2357 51.2578 27.418C51.2057 27.6523 51.1602 28.0365 51.1211 28.5703C51.0951 29.0911 51.0625 29.6771 51.0234 30.3281C50.9974 30.9792 50.9714 31.6562 50.9453 32.3594C50.9193 33.0625 50.8932 33.707 50.8672 34.293C50.8672 34.7357 50.8542 35.2109 50.8281 35.7188C50.8021 36.1484 50.776 36.6367 50.75 37.1836C50.724 37.7174 50.6914 38.2578 50.6523 38.8047L48.9141 38.8438C48.4062 37.9453 47.9766 37.1771 47.625 36.5391C47.2865 35.888 47.0065 35.3542 46.7852 34.9375C46.5378 34.4557 46.3294 34.0521 46.1602 33.7266C46.0169 33.4141 45.8281 33.056 45.5938 32.6523C45.3984 32.3138 45.151 31.8971 44.8516 31.4023C44.5651 30.9076 44.2201 30.3411 43.8164 29.7031C43.7773 30.6016 43.7578 31.3698 43.7578 32.0078C43.7708 32.6328 43.7904 33.1536 43.8164 33.5703C43.8555 34.0521 43.901 34.4557 43.9531 34.7812C44.0182 35.0938 44.1094 35.4453 44.2266 35.8359C44.3307 36.1745 44.4544 36.5716 44.5977 37.0273C44.7539 37.4831 44.9427 37.9974 45.1641 38.5703C44.3958 38.5312 43.8229 38.5117 43.4453 38.5117H42.8594C42.6771 38.5117 42.4297 38.5312 42.1172 38.5703C41.8568 38.5964 41.4987 38.6354 41.043 38.6875C40.6003 38.7396 40.0469 38.8112 39.3828 38.9023C39.6953 38.5247 39.9427 38.1797 40.125 37.8672C40.3203 37.5417 40.4701 37.2682 40.5742 37.0469C40.7044 36.7865 40.7956 36.5586 40.8477 36.3633C40.8867 36.1549 40.9128 35.7969 40.9258 35.2891C40.9388 34.7682 40.9388 34.1823 40.9258 33.5312C40.9258 32.8672 40.9128 32.1706 40.8867 31.4414C40.8737 30.7122 40.8542 30.0352 40.8281 29.4102C40.8021 28.7852 40.7695 28.2513 40.7305 27.8086C40.7044 27.3659 40.6849 27.0924 40.6719 26.9883C40.6328 26.819 40.5547 26.6367 40.4375 26.4414C40.3333 26.2721 40.1966 26.0833 40.0273 25.875C39.8581 25.6536 39.6237 25.4128 39.3242 25.1523ZM51.8828 25.0742C52.3385 25.1393 52.7357 25.1914 53.0742 25.2305C53.4128 25.2695 53.6927 25.3021 53.9141 25.3281C54.1745 25.3542 54.3958 25.3737 54.5781 25.3867C54.7865 25.4128 55.0404 25.3997 55.3398 25.3477C55.6523 25.2956 55.9844 25.2435 56.3359 25.1914C56.6875 25.1263 57.0521 25.0742 57.4297 25.0352C57.8073 24.9961 58.1719 24.9961 58.5234 25.0352C58.7578 25.0612 59.0573 25.1133 59.4219 25.1914C59.7865 25.2695 60.1706 25.3932 60.5742 25.5625C60.9909 25.7318 61.4076 25.9531 61.8242 26.2266C62.2409 26.5 62.6185 26.8451 62.957 27.2617C63.2956 27.6784 63.5755 28.1732 63.7969 28.7461C64.0182 29.319 64.1419 29.9896 64.168 30.7578C64.207 31.9036 64.1029 32.9453 63.8555 33.8828C63.6081 34.8203 63.224 35.6211 62.7031 36.2852C62.1953 36.9492 61.5508 37.4701 60.7695 37.8477C59.9883 38.2253 59.0768 38.4336 58.0352 38.4727C57.2409 38.5378 56.4596 38.5964 55.6914 38.6484C55.3659 38.6745 55.0208 38.694 54.6562 38.707C54.3047 38.7201 53.9531 38.7331 53.6016 38.7461C53.25 38.7461 52.9115 38.7396 52.5859 38.7266C52.2604 38.7135 51.9609 38.694 51.6875 38.668C51.987 38.5247 52.2279 38.3815 52.4102 38.2383C52.6055 38.0951 52.7552 37.9714 52.8594 37.8672C52.9766 37.737 53.0612 37.6198 53.1133 37.5156C53.1393 37.3724 53.1784 37.0924 53.2305 36.6758C53.2695 36.3242 53.3216 35.8229 53.3867 35.1719C53.4518 34.5208 53.5299 33.6354 53.6211 32.5156L53.7383 31.1289C53.8034 30.2695 53.8294 29.5664 53.8164 29.0195C53.8164 28.4727 53.8034 28.043 53.7773 27.7305C53.7383 27.3659 53.6862 27.099 53.6211 26.9297C53.569 26.7865 53.4714 26.6172 53.3281 26.4219C53.1979 26.2656 53.0156 26.0768 52.7812 25.8555C52.5599 25.6211 52.2604 25.3607 51.8828 25.0742ZM56.0039 32.2617C56.0299 33.4206 56.0885 34.3125 56.1797 34.9375C56.2839 35.5495 56.3945 36.0052 56.5117 36.3047C56.6549 36.6432 56.8112 36.8451 56.9805 36.9102C57.2279 36.9102 57.5078 36.806 57.8203 36.5977C58.1328 36.3763 58.4388 36.0443 58.7383 35.6016C59.0508 35.1589 59.3307 34.6055 59.5781 33.9414C59.8385 33.2773 60.0273 32.5026 60.1445 31.6172C60.2617 30.7318 60.2292 29.9505 60.0469 29.2734C59.8646 28.5964 59.6237 28.0299 59.3242 27.5742C59.0247 27.1055 58.7188 26.7539 58.4062 26.5195C58.0938 26.2721 57.8594 26.1484 57.7031 26.1484C57.5208 26.1484 57.3581 26.2005 57.2148 26.3047C57.0716 26.3958 56.8698 26.6107 56.6094 26.9492C56.4792 27.1315 56.362 27.3919 56.2578 27.7305C56.1667 28.0299 56.0885 28.4271 56.0234 28.9219C55.9583 29.4167 55.9388 30.0547 55.9648 30.8359L56.0039 32.2617ZM64.0703 24.7422C64.487 24.8073 64.8646 24.8659 65.2031 24.918C65.5417 24.957 65.8346 24.9896 66.082 25.0156C66.3685 25.0547 66.6224 25.0872 66.8438 25.1133C67.1172 25.1523 67.5273 25.1068 68.0742 24.9766C68.6211 24.8333 69.2201 24.7031 69.8711 24.5859C70.5352 24.4557 71.2122 24.3841 71.9023 24.3711C72.5924 24.3451 73.224 24.4688 73.7969 24.7422C74.3698 25.0156 74.8385 25.2891 75.2031 25.5625C75.5677 25.8359 75.8542 26.1289 76.0625 26.4414C76.2839 26.7409 76.4401 27.0599 76.5312 27.3984C76.6224 27.737 76.6745 28.1081 76.6875 28.5117C76.6745 29.1107 76.5312 29.6901 76.2578 30.25C76.1406 30.4844 75.9844 30.7318 75.7891 30.9922C75.6068 31.2396 75.3789 31.4805 75.1055 31.7148C74.832 31.9492 74.5065 32.1706 74.1289 32.3789C73.7643 32.5872 73.3346 32.7695 72.8398 32.9258C73.3216 33.069 73.7188 33.2383 74.0312 33.4336C74.3568 33.6289 74.6172 33.8112 74.8125 33.9805C75.0469 34.1888 75.2227 34.3906 75.3398 34.5859C75.4831 34.8594 75.5807 35.0938 75.6328 35.2891C75.6849 35.4844 75.7174 35.6732 75.7305 35.8555C75.7565 36.0247 75.7891 36.2005 75.8281 36.3828C75.8672 36.5651 75.9518 36.7734 76.082 37.0078C76.1862 37.1901 76.3099 37.3789 76.4531 37.5742C76.5833 37.7435 76.7331 37.9258 76.9023 38.1211C77.0846 38.3164 77.306 38.5052 77.5664 38.6875C77.2018 38.7005 76.8633 38.707 76.5508 38.707C76.2513 38.707 75.9909 38.707 75.7695 38.707C75.5091 38.707 75.2617 38.7005 75.0273 38.6875C74.793 38.6745 74.5 38.668 74.1484 38.668C73.849 38.668 73.4648 38.668 72.9961 38.668C72.5404 38.668 71.987 38.6745 71.3359 38.6875C71.6224 38.4661 71.8568 38.2448 72.0391 38.0234C72.2214 37.8021 72.3646 37.6003 72.4688 37.418C72.5859 37.2096 72.6706 37.0078 72.7227 36.8125C72.7878 36.4609 72.7943 36.0964 72.7422 35.7188C72.7031 35.3932 72.599 35.0352 72.4297 34.6445C72.2604 34.2409 71.987 33.8372 71.6094 33.4336C71.2318 33.4987 70.9128 33.5508 70.6523 33.5898C70.4049 33.6159 70.1901 33.6419 70.0078 33.668C69.7995 33.694 69.6302 33.7135 69.5 33.7266C69.3828 33.7396 69.2526 33.7526 69.1094 33.7656C68.9922 33.7786 68.862 33.7982 68.7188 33.8242C68.5885 33.8372 68.4648 33.8568 68.3477 33.8828C68.3216 34.4427 68.3216 34.931 68.3477 35.3477C68.3737 35.7513 68.4062 36.0898 68.4453 36.3633C68.4974 36.6888 68.556 36.9688 68.6211 37.2031C68.6862 37.4375 68.7773 37.6654 68.8945 37.8867C68.9857 38.069 69.1029 38.2643 69.2461 38.4727C69.3893 38.668 69.5521 38.8307 69.7344 38.9609C69.3958 38.9609 69.0703 38.9609 68.7578 38.9609C68.4583 38.9609 68.1849 38.9544 67.9375 38.9414C67.651 38.9414 67.3776 38.9349 67.1172 38.9219C66.8568 38.9089 66.5638 38.9023 66.2383 38.9023C65.9648 38.9023 65.6393 38.9023 65.2617 38.9023C64.8971 38.9023 64.5 38.9089 64.0703 38.9219C64.4089 38.5703 64.6758 38.2708 64.8711 38.0234C65.0664 37.776 65.2161 37.5677 65.3203 37.3984C65.4375 37.2161 65.5091 37.0599 65.5352 36.9297C65.5612 36.7214 65.5807 36.3503 65.5938 35.8164C65.6198 35.2695 65.6393 34.6445 65.6523 33.9414C65.6654 33.2383 65.6719 32.5026 65.6719 31.7344C65.6719 30.9661 65.6654 30.25 65.6523 29.5859C65.6393 28.9089 65.6263 28.3294 65.6133 27.8477C65.6003 27.3659 65.5872 27.0599 65.5742 26.9297C65.5352 26.6953 65.4505 26.4609 65.3203 26.2266C65.2161 26.0182 65.0664 25.7839 64.8711 25.5234C64.6758 25.263 64.4089 25.0026 64.0703 24.7422ZM71.4531 31.6172C71.5833 31.5391 71.694 31.4609 71.7852 31.3828C71.8763 31.3047 71.9544 31.181 72.0195 31.0117C72.0846 30.8294 72.1367 30.5755 72.1758 30.25C72.2279 29.9245 72.2865 29.4818 72.3516 28.9219C72.4036 28.362 72.3646 27.8997 72.2344 27.5352C72.1172 27.1706 71.9544 26.8841 71.7461 26.6758C71.5508 26.4544 71.3294 26.3047 71.082 26.2266C70.8477 26.1354 70.6393 26.0898 70.457 26.0898C70.0924 26.0898 69.7344 26.2005 69.3828 26.4219C69.0312 26.6432 68.7643 26.9427 68.582 27.3203C68.5169 27.4896 68.4583 27.7695 68.4062 28.1602C68.3672 28.4987 68.3411 28.9674 68.3281 29.5664C68.3151 30.1654 68.3346 30.9531 68.3867 31.9297C68.8815 32.0078 69.3177 32.0404 69.6953 32.0273C70.0729 32.0013 70.3919 31.9557 70.6523 31.8906C70.9648 31.8255 71.2318 31.7344 71.4531 31.6172ZM84.5 24.2734C85.2031 24.2995 85.9128 24.4297 86.6289 24.6641C87.3581 24.8854 88.0286 25.25 88.6406 25.7578C89.2526 26.2526 89.7734 26.8971 90.2031 27.6914C90.6328 28.4727 90.8997 29.4297 91.0039 30.5625C91.0951 31.487 90.9779 32.4049 90.6523 33.3164C90.3398 34.2148 89.9036 35.0417 89.3438 35.7969C88.7839 36.5521 88.1393 37.1966 87.4102 37.7305C86.681 38.2513 85.9518 38.5964 85.2227 38.7656C84.7799 38.8698 84.2917 38.8828 83.7578 38.8047C83.237 38.7135 82.7031 38.5508 82.1562 38.3164C81.6224 38.069 81.0951 37.7565 80.5742 37.3789C80.0664 37.0013 79.6042 36.5716 79.1875 36.0898C78.7708 35.5951 78.4193 35.0612 78.1328 34.4883C77.8594 33.9154 77.6901 33.3164 77.625 32.6914C77.5599 32.1706 77.5534 31.5977 77.6055 30.9727C77.6706 30.3346 77.7943 29.7031 77.9766 29.0781C78.1719 28.4401 78.4388 27.8281 78.7773 27.2422C79.1289 26.6432 79.5716 26.1224 80.1055 25.6797C80.6393 25.224 81.2643 24.8724 81.9805 24.625C82.7096 24.3646 83.5495 24.2474 84.5 24.2734ZM81.0039 32.1836C80.8216 33.5768 80.9518 34.6966 81.3945 35.543C81.8503 36.3893 82.5339 36.9036 83.4453 37.0859C83.888 37.1771 84.3112 37.0859 84.7148 36.8125C85.1315 36.526 85.5091 36.1159 85.8477 35.582C86.1862 35.0482 86.4792 34.4232 86.7266 33.707C86.974 32.9909 87.1562 32.2422 87.2734 31.4609C87.3906 30.6797 87.3971 29.9766 87.293 29.3516C87.2018 28.7135 87.0391 28.1732 86.8047 27.7305C86.5703 27.2747 86.2839 26.9232 85.9453 26.6758C85.6198 26.4284 85.2812 26.2917 84.9297 26.2656C84.3177 26.2266 83.7839 26.3893 83.3281 26.7539C82.8724 27.1055 82.4883 27.5677 82.1758 28.1406C81.8633 28.7135 81.6094 29.3581 81.4141 30.0742C81.2318 30.7904 81.0951 31.4935 81.0039 32.1836ZM91.3359 24.9961C91.7526 25.0091 92.1172 25.0156 92.4297 25.0156C92.7422 25.0026 92.9961 24.9961 93.1914 24.9961H93.7578C93.901 24.9831 94.0768 24.9766 94.2852 24.9766C94.4674 24.9766 94.6888 24.9766 94.9492 24.9766C95.2096 24.9766 95.5091 24.9831 95.8477 24.9961C95.9518 25.3607 96.069 25.7188 96.1992 26.0703C96.3424 26.4089 96.4661 26.7148 96.5703 26.9883C96.7005 27.3138 96.8307 27.6198 96.9609 27.9062C97.0911 28.1927 97.2474 28.5378 97.4297 28.9414C97.5859 29.2799 97.7747 29.6966 97.9961 30.1914C98.2174 30.6732 98.4779 31.2266 98.7773 31.8516C98.9206 31.4479 99.0508 31.0768 99.168 30.7383C99.2982 30.3997 99.4089 30.1068 99.5 29.8594C99.6042 29.5729 99.6888 29.3125 99.7539 29.0781C99.819 28.8438 99.8906 28.5573 99.9688 28.2188C100.034 27.9323 100.105 27.5872 100.184 27.1836C100.275 26.7799 100.366 26.3112 100.457 25.7773C100.835 25.7773 101.173 25.7773 101.473 25.7773C101.772 25.7773 102.033 25.7708 102.254 25.7578C102.501 25.7578 102.723 25.7513 102.918 25.7383C103.126 25.7383 103.406 25.7253 103.758 25.6992C104.057 25.6732 104.454 25.6536 104.949 25.6406C105.457 25.6146 106.082 25.582 106.824 25.543C106.551 25.7383 106.329 25.9336 106.16 26.1289C106.004 26.3112 105.88 26.474 105.789 26.6172C105.685 26.7865 105.62 26.9492 105.594 27.1055C105.568 27.2357 105.542 27.5352 105.516 28.0039C105.503 28.4727 105.483 29.0326 105.457 29.6836C105.444 30.3216 105.431 31.0052 105.418 31.7344C105.418 32.4635 105.424 33.1536 105.438 33.8047C105.451 34.4557 105.47 35.0221 105.496 35.5039C105.535 35.9727 105.587 36.2721 105.652 36.4023C105.743 36.5586 105.867 36.7409 106.023 36.9492C106.167 37.1315 106.349 37.3398 106.57 37.5742C106.805 37.8086 107.111 38.069 107.488 38.3555C106.889 38.3815 106.388 38.401 105.984 38.4141C105.594 38.4271 105.268 38.4401 105.008 38.4531C104.708 38.4661 104.467 38.4727 104.285 38.4727C104.09 38.4727 103.823 38.4792 103.484 38.4922C103.185 38.5052 102.788 38.5247 102.293 38.5508C101.798 38.5638 101.16 38.5898 100.379 38.6289C100.561 38.4206 100.73 38.2122 100.887 38.0039C101.043 37.7956 101.173 37.6068 101.277 37.4375C101.408 37.2422 101.518 37.0534 101.609 36.8711C101.701 36.6237 101.772 36.1745 101.824 35.5234C101.876 34.9635 101.915 34.1628 101.941 33.1211C101.967 32.0664 101.967 30.6536 101.941 28.8828C101.694 29.2865 101.473 29.6901 101.277 30.0938C101.095 30.4844 100.932 30.8424 100.789 31.168C100.633 31.5456 100.49 31.9102 100.359 32.2617C100.229 32.6263 100.092 33.0299 99.9492 33.4727C99.819 33.8503 99.6628 34.2995 99.4805 34.8203C99.3112 35.3411 99.1159 35.9141 98.8945 36.5391L98.1523 36.5781C98.0482 36.0573 97.944 35.5885 97.8398 35.1719C97.7357 34.7422 97.6315 34.3776 97.5273 34.0781C97.4102 33.7266 97.293 33.4141 97.1758 33.1406C97.0456 32.8672 96.9023 32.5612 96.7461 32.2227C96.6029 31.9362 96.4271 31.5977 96.2188 31.207C96.0234 30.8164 95.7956 30.3802 95.5352 29.8984C95.4049 31.2266 95.3268 32.3073 95.3008 33.1406C95.2747 33.9609 95.2747 34.599 95.3008 35.0547C95.3268 35.6016 95.3659 35.9987 95.418 36.2461C95.4961 36.4674 95.6198 36.7148 95.7891 36.9883C95.9323 37.2227 96.1276 37.5026 96.375 37.8281C96.6354 38.1406 96.9674 38.4922 97.3711 38.8828C97.0846 38.8828 96.7852 38.8828 96.4727 38.8828C96.1602 38.8828 95.8737 38.8893 95.6133 38.9023C95.3008 38.9154 94.9948 38.9219 94.6953 38.9219C94.3828 38.9349 94.0182 38.9544 93.6016 38.9805C93.237 39.0065 92.8008 39.0326 92.293 39.0586C91.7852 39.0846 91.1992 39.1302 90.5352 39.1953C90.8216 39.013 91.056 38.8372 91.2383 38.668C91.4206 38.4857 91.5638 38.3229 91.668 38.1797C91.7982 38.0104 91.8958 37.8411 91.9609 37.6719C92 37.5677 92.0326 37.3398 92.0586 36.9883C92.0977 36.6367 92.1302 36.207 92.1562 35.6992C92.1953 35.1914 92.2214 34.625 92.2344 34C92.2604 33.375 92.2799 32.7435 92.293 32.1055C92.319 31.4544 92.3385 30.8229 92.3516 30.2109C92.3646 29.5859 92.3711 29.026 92.3711 28.5312C92.3841 28.0234 92.3906 27.6003 92.3906 27.2617C92.3906 26.9232 92.3906 26.7083 92.3906 26.6172C92.3516 26.4219 92.293 26.2266 92.2148 26.0312C92.1497 25.862 92.0456 25.6862 91.9023 25.5039C91.7591 25.3216 91.5703 25.1523 91.3359 24.9961ZM110.359 25.7773C111.01 25.8164 111.557 25.849 112 25.875C112.456 25.888 112.833 25.901 113.133 25.9141C113.471 25.9271 113.758 25.9271 113.992 25.9141C114.227 25.901 114.546 25.8685 114.949 25.8164C115.288 25.7773 115.737 25.7188 116.297 25.6406C116.87 25.5495 117.579 25.4323 118.426 25.2891C118.126 25.5885 117.892 25.862 117.723 26.1094C117.566 26.3438 117.443 26.5456 117.352 26.7148C117.247 26.9232 117.176 27.099 117.137 27.2422C117.111 27.3724 117.137 27.6979 117.215 28.2188C117.293 28.7396 117.404 29.3581 117.547 30.0742C117.69 30.7773 117.846 31.5326 118.016 32.3398C118.185 33.1341 118.354 33.8828 118.523 34.5859C118.693 35.276 118.842 35.8685 118.973 36.3633C119.116 36.8451 119.22 37.1315 119.285 37.2227C119.48 37.4961 119.604 37.6784 119.656 37.7695C119.708 37.8477 119.799 37.9193 119.93 37.9844C119.982 38.0104 120.066 38.0495 120.184 38.1016C120.288 38.1536 120.424 38.2188 120.594 38.2969C120.776 38.375 121.004 38.4661 121.277 38.5703C120.77 38.5964 120.333 38.6159 119.969 38.6289C119.604 38.6289 119.305 38.6354 119.07 38.6484C118.797 38.6615 118.562 38.6745 118.367 38.6875C118.172 38.6875 117.938 38.7005 117.664 38.7266C117.43 38.7526 117.124 38.7786 116.746 38.8047C116.382 38.8307 115.952 38.8568 115.457 38.8828C115.717 38.7005 115.926 38.5378 116.082 38.3945C116.251 38.2383 116.382 38.1081 116.473 38.0039C116.577 37.8737 116.648 37.7565 116.688 37.6523C116.714 37.5352 116.733 37.3594 116.746 37.125C116.759 36.9167 116.759 36.6432 116.746 36.3047C116.733 35.9531 116.701 35.4974 116.648 34.9375L111.512 35.4648C111.382 35.6862 111.284 35.8815 111.219 36.0508C111.154 36.207 111.108 36.3438 111.082 36.4609C111.043 36.6042 111.03 36.7214 111.043 36.8125C111.069 36.9167 111.115 37.0404 111.18 37.1836C111.245 37.3138 111.336 37.4701 111.453 37.6523C111.583 37.8216 111.772 38.0234 112.02 38.2578C111.694 38.2448 111.362 38.2383 111.023 38.2383C110.685 38.2383 110.372 38.2448 110.086 38.2578C109.747 38.2708 109.415 38.2839 109.09 38.2969C108.764 38.3099 108.393 38.3294 107.977 38.3555C107.625 38.3815 107.215 38.4141 106.746 38.4531C106.264 38.4792 105.75 38.5182 105.203 38.5703C105.542 38.4141 105.828 38.2578 106.062 38.1016C106.297 37.9323 106.492 37.776 106.648 37.6328C106.831 37.4766 106.987 37.3268 107.117 37.1836C107.208 37.0534 107.391 36.7539 107.664 36.2852C107.938 35.8034 108.243 35.237 108.582 34.5859C108.934 33.9349 109.298 33.2383 109.676 32.4961C110.066 31.7539 110.418 31.0573 110.73 30.4062C111.043 29.7422 111.297 29.1693 111.492 28.6875C111.688 28.2057 111.785 27.8932 111.785 27.75C111.759 27.5807 111.694 27.3919 111.59 27.1836C111.499 27.0013 111.355 26.793 111.16 26.5586C110.978 26.3242 110.711 26.0638 110.359 25.7773ZM116.414 33.4922C116.336 33.0365 116.264 32.6458 116.199 32.3203C116.134 31.9818 116.082 31.7018 116.043 31.4805C115.991 31.2201 115.952 30.9922 115.926 30.7969C115.887 30.6146 115.841 30.3802 115.789 30.0938C115.737 29.8464 115.672 29.5404 115.594 29.1758C115.529 28.7982 115.444 28.349 115.34 27.8281C114.598 29.3125 114.018 30.4648 113.602 31.2852C113.198 32.0924 112.905 32.6849 112.723 33.0625C112.501 33.5052 112.378 33.7656 112.352 33.8438L116.414 33.4922ZM119.676 24.7422C120.548 24.8464 121.303 24.9245 121.941 24.9766C122.579 25.0156 123.107 25.0482 123.523 25.0742C124.005 25.1003 124.409 25.1068 124.734 25.0938C125.073 25.0807 125.535 25.0482 126.121 24.9961C126.616 24.957 127.267 24.9049 128.074 24.8398C128.882 24.7617 129.891 24.6576 131.102 24.5273C131.115 24.8268 131.121 25.1198 131.121 25.4062C131.134 25.6797 131.147 25.9206 131.16 26.1289C131.173 26.3763 131.18 26.6042 131.18 26.8125C131.18 27.0339 131.167 27.3138 131.141 27.6523C131.115 27.9388 131.069 28.3034 131.004 28.7461C130.952 29.1758 130.867 29.6901 130.75 30.2891C130.568 29.5859 130.392 29.0195 130.223 28.5898C130.053 28.1471 129.897 27.7956 129.754 27.5352C129.598 27.2357 129.441 27.0078 129.285 26.8516C129.116 26.7344 128.914 26.6367 128.68 26.5586C128.471 26.4935 128.204 26.4414 127.879 26.4023C127.566 26.3633 127.195 26.3698 126.766 26.4219C126.701 28.1406 126.655 29.5339 126.629 30.6016C126.603 31.6693 126.583 32.5026 126.57 33.1016C126.557 33.8177 126.551 34.332 126.551 34.6445C126.564 35.0872 126.635 35.5234 126.766 35.9531C126.87 36.3177 127.039 36.6953 127.273 37.0859C127.508 37.4766 127.846 37.8216 128.289 38.1211H125.906C125.685 38.1211 125.411 38.1341 125.086 38.1602C124.812 38.1862 124.461 38.2122 124.031 38.2383C123.615 38.2643 123.126 38.3099 122.566 38.375C122.762 38.0365 122.918 37.7305 123.035 37.457C123.152 37.1836 123.243 36.9492 123.309 36.7539C123.387 36.5195 123.445 36.3112 123.484 36.1289C123.497 35.8685 123.53 35.3411 123.582 34.5469C123.595 34.2214 123.608 33.8177 123.621 33.3359C123.647 32.8542 123.673 32.2812 123.699 31.6172C123.738 30.9531 123.771 30.1914 123.797 29.332C123.836 28.4596 123.875 27.4766 123.914 26.3828C123.68 26.3177 123.458 26.3242 123.25 26.4023C123.042 26.4674 122.859 26.5521 122.703 26.6562C122.521 26.7865 122.345 26.9427 122.176 27.125C122.007 27.3464 121.818 27.6328 121.609 27.9844C121.427 28.2839 121.219 28.681 120.984 29.1758C120.75 29.6576 120.483 30.2565 120.184 30.9727C120.118 30.2174 120.073 29.599 120.047 29.1172C120.021 28.6224 120.001 28.2383 119.988 27.9648C119.975 27.6393 119.969 27.3984 119.969 27.2422C119.969 27.099 119.956 26.9102 119.93 26.6758C119.904 26.4805 119.871 26.2266 119.832 25.9141C119.793 25.5885 119.741 25.1979 119.676 24.7422Z" fill="#B6B6B6"/>
</g>
<defs>
<filter id="filter0_d_16_46" x="0.232422" y="0.703125" width="140.832" height="46.4922" filterUnits="userSpaceOnUse" color-interpolation-filters="sRGB">
<feFlood flood-opacity="0" result="BackgroundImageFix"/>
<feColorMatrix in="SourceAlpha" type="matrix" values="0 0 0 0 0 0 0 0 0 0 0 0 0 0 0 0 0 0 127 0" result="hardAlpha"/>
<feOffset dx="4" dy="4"/>
<feGaussianBlur stdDeviation="2"/>
<feComposite in2="hardAlpha" operator="out"/>
<feColorMatrix type="matrix" values="0 0 0 0 0 0 0 0 0 0 0 0 0 0 0 0 0 0 0.25 0"/>
<feBlend mode="normal" in2="BackgroundImageFix" result="effect1_dropShadow_16_46"/>
<feBlend mode="normal" in="SourceGraphic" in2="effect1_dropShadow_16_46" result="shape"/>
</filter>
</defs>
</svg>
